<svg version="1.1" id="Layer_1" xmlns="http://www.w3.org/2000/svg" xmlns:xlink="http://www.w3.org/1999/xlink" x="0px" y="0px"
	 width="100%" viewBox="0 0 916 318" enable-background="new 0 0 916 318" xml:space="preserve">
<path fill="#ECEFF1" opacity="1.000000" stroke="none" 
	d="
M580.000000,319.000000 
	C388.166656,319.000000 196.833328,318.987213 5.500052,319.093658 
	C1.750733,319.095734 0.900987,318.249634 0.905288,314.499878 
	C1.023619,211.333359 1.021816,108.166641 0.904518,5.000109 
	C0.900625,1.576045 1.576570,0.904799 5.000031,0.905947 
	C307.666656,1.007480 610.333313,1.007480 912.999939,0.905947 
	C916.423462,0.904799 917.099426,1.576046 917.095520,5.000108 
	C916.978271,108.333313 916.978271,211.666702 917.095520,314.999878 
	C917.099426,318.423950 916.423889,319.098907 912.999878,319.095337 
	C802.166687,318.979675 691.333313,319.000000 580.000000,319.000000 
z"/>
<path fill="#1E1C2D" opacity="1.000000" stroke="none" 
	d="
M228.992798,27.104874 
	C270.842102,25.760641 303.112152,53.199463 312.326202,87.799255 
	C314.310455,95.250343 315.174774,102.840363 315.174988,110.539032 
	C315.175934,142.864777 315.294739,175.191055 315.148254,207.516144 
	C314.932190,255.198837 279.055878,290.851288 231.427628,290.888153 
	C196.602478,290.915100 161.777298,290.918640 126.952156,290.887360 
	C79.498314,290.844727 43.290798,254.811798 43.177120,207.451447 
	C43.099529,175.125885 43.096321,142.799820 43.178085,110.474281 
	C43.297321,63.335178 79.491592,27.160873 126.518433,27.112654 
	C160.510376,27.077799 194.502396,27.105219 228.992798,27.104874 
z"/>
<path fill="#211F30" opacity="1.000000" stroke="none" 
	d="
M399.311768,182.187531 
	C393.180969,184.992874 387.097809,186.808212 380.891235,187.988098 
	C377.717133,188.591492 376.520691,190.180634 375.658508,193.002350 
	C373.130341,201.276138 370.473785,209.516479 367.609772,217.679489 
	C366.160309,221.810730 364.734253,221.879227 361.674347,218.818069 
	C358.060577,215.202805 358.505615,211.008896 359.691833,206.692505 
	C363.044189,194.494324 366.610443,182.352036 369.763245,170.102997 
	C371.544617,163.182251 372.800751,156.116486 374.049652,149.072784 
	C374.649414,145.690170 375.102692,142.295319 372.474396,139.149826 
	C370.519196,136.809845 372.252228,134.838867 374.332581,133.358978 
	C384.559570,126.083794 405.400452,125.620369 415.922180,132.435562 
	C427.608856,140.005325 429.584503,155.775070 420.259674,167.483139 
	C414.814514,174.319962 407.466370,178.520325 399.311768,182.187531 
z"/>
<path fill="#221F31" opacity="1.000000" stroke="none" 
	d="
M713.146484,216.142410 
	C703.064209,223.358261 694.890442,222.647125 687.238342,214.204575 
	C683.865173,210.482895 682.499084,206.266296 683.634338,201.314301 
	C687.459106,184.630020 696.036926,170.884476 709.572449,160.442642 
	C716.806030,154.862289 723.336975,154.641129 728.832397,158.938828 
	C736.504456,164.938782 738.635742,171.810059 734.872742,180.367538 
	C733.785095,182.840912 735.549500,184.535187 735.251770,186.551010 
	C733.671936,197.247299 731.994141,207.929337 730.290283,218.606720 
	C730.106995,219.755341 729.525818,220.895203 728.125732,221.021851 
	C726.551819,221.164215 725.742981,220.025558 725.035034,218.872803 
	C723.084595,215.697311 723.152222,211.910843 722.142395,207.720383 
	C718.909241,210.765625 716.169617,213.346085 713.146484,216.142410 
z"/>
<path fill="#222030" opacity="1.000000" stroke="none" 
	d="
M627.391113,185.611145 
	C624.708191,195.993546 622.333801,206.043045 618.659363,215.695633 
	C617.795715,217.964401 617.172668,221.872879 613.713989,220.736771 
	C610.211243,219.586182 608.381592,216.243271 609.369995,212.244629 
	C610.646667,207.079681 612.122131,201.964005 613.502075,196.824432 
	C614.968445,191.362930 616.335999,185.872955 617.913879,180.444000 
	C618.951294,176.874466 618.928406,174.655823 614.145813,175.891968 
	C611.860046,176.482758 609.536499,176.249084 607.576294,174.512558 
	C604.367920,171.670303 604.616150,168.861084 608.575623,167.309387 
	C611.496094,166.164871 614.601440,165.337769 617.700134,164.846909 
	C620.649109,164.379791 621.906128,162.989395 622.416931,160.095535 
	C623.919250,151.584869 625.308350,143.021423 628.584778,134.946747 
	C631.591675,127.536194 635.771240,121.344872 644.663025,120.421181 
	C655.312439,119.314903 664.733032,131.646179 660.936829,141.693405 
	C660.444214,142.997299 659.794800,144.185333 658.372375,144.522278 
	C656.625244,144.936127 655.383606,143.790268 654.712708,142.488297 
	C653.579712,140.289612 652.885681,137.869644 651.874756,135.601730 
	C650.855957,133.316177 649.797363,130.906342 646.779785,130.759064 
	C643.828674,130.615051 642.212036,132.645355 641.088135,134.921539 
	C636.928467,143.346024 635.095520,152.436508 633.422668,161.841339 
	C637.700562,161.841339 641.670837,161.747604 645.633972,161.875320 
	C648.148193,161.956345 651.276367,162.222778 651.511719,165.271988 
	C651.750244,168.363022 648.506470,168.904770 646.179321,169.517517 
	C642.486389,170.489883 638.732971,171.494308 634.950806,171.790070 
	C631.387817,172.068665 630.064636,173.839554 629.479248,176.969238 
	C628.960205,179.744019 628.184631,182.470779 627.391113,185.611145 
z"/>
<path fill="#232032" opacity="1.000000" stroke="none" 
	d="
M836.082031,162.924286 
	C836.542419,163.437744 836.764160,163.687119 836.965393,163.952042 
	C847.620667,177.980942 843.477783,189.317825 826.197021,193.094055 
	C819.090332,194.647018 811.917480,194.109482 804.872498,192.581558 
	C802.143127,191.989609 801.036499,192.581635 800.319824,195.321091 
	C797.413818,206.429260 801.370239,211.447372 812.887207,211.222061 
	C818.668579,211.108948 823.990417,209.263901 829.395020,207.579727 
	C831.385559,206.959412 833.827637,205.865570 835.210205,208.389816 
	C836.559143,210.852417 834.555420,212.533218 832.873108,213.809082 
	C824.632812,220.058411 815.400757,222.800995 805.178528,220.380692 
	C795.546448,218.100159 788.912781,209.876694 789.296631,199.976196 
	C789.982483,182.285843 798.156494,168.430267 812.912476,158.824677 
	C820.861328,153.650269 828.125427,155.268387 836.082031,162.924286 
z"/>
<path fill="#232032" opacity="1.000000" stroke="none" 
	d="
M526.974060,192.274185 
	C522.648865,196.375290 522.919678,201.377823 524.478210,206.100800 
	C525.855835,210.275543 529.900757,210.998169 533.938354,211.207611 
	C540.404236,211.542984 546.469971,209.918930 552.511841,207.911652 
	C554.751038,207.167709 557.668640,205.474274 559.161865,208.452759 
	C560.700989,211.522766 557.830627,213.297333 555.676880,214.777466 
	C548.880066,219.448364 541.413818,221.794632 533.058533,221.067078 
	C521.683350,220.076553 512.846130,211.281754 513.331604,199.876205 
	C514.081787,182.251526 522.235046,168.347870 537.074707,158.771301 
	C543.114685,154.873459 549.863403,154.634277 555.832458,159.180176 
	C562.556702,164.301163 567.639038,170.677231 566.734802,179.831131 
	C566.226807,184.973831 562.453796,187.938614 558.185852,190.172729 
	C548.267700,195.364639 537.881470,194.362946 526.974060,192.274185 
z"/>
<path fill="#222031" opacity="1.000000" stroke="none" 
	d="
M502.637299,216.560547 
	C502.198700,221.466049 500.037567,222.494446 496.288605,219.688446 
	C490.996521,215.727463 487.380188,210.248184 484.078461,204.677078 
	C481.770569,200.782867 480.345062,200.666534 477.604156,204.325745 
	C473.620758,209.643753 469.105042,214.555893 464.173035,219.064911 
	C461.028412,221.939850 458.364136,221.485794 455.573120,218.552826 
	C452.710083,215.544235 454.648315,213.614227 456.723450,211.424377 
	C462.215729,205.628510 467.546814,199.679398 473.065033,193.908859 
	C475.092682,191.788498 475.313263,189.996597 473.822052,187.361038 
	C469.647156,179.982452 465.747253,172.436523 462.789246,164.469559 
	C461.768433,161.720184 459.304779,158.358582 463.326660,156.230881 
	C466.552368,154.524384 473.778412,158.585785 474.494019,162.155975 
	C475.848328,168.912689 478.601807,175.051483 482.229279,181.545532 
	C486.022797,176.652573 489.360870,172.151764 492.913879,167.827545 
	C495.653320,164.493484 498.579620,161.301086 501.576019,158.193359 
	C504.415222,155.248672 507.415253,155.646744 510.402557,158.170959 
	C513.273010,160.596466 513.735229,163.021606 510.652588,165.595261 
	C502.516022,172.388397 496.845795,181.319092 490.023956,189.253113 
	C488.109955,191.479156 488.323975,193.051041 489.765533,195.327209 
	C494.124634,202.209946 498.262268,209.232925 502.637299,216.560547 
z"/>
<path fill="#232031" opacity="1.000000" stroke="none" 
	d="
M678.221375,155.501526 
	C675.131226,176.063766 670.411865,195.799393 664.254578,215.182388 
	C663.545776,217.413727 663.642212,221.045975 659.860657,220.825729 
	C657.069702,220.663193 653.822144,214.939301 654.576599,211.667496 
	C656.671204,202.583633 659.126587,193.579575 661.075500,184.466187 
	C665.326172,164.590591 669.241272,144.652328 669.328064,124.198067 
	C669.334961,122.568863 668.970886,120.681931 670.878052,119.808563 
	C672.967346,118.851807 674.335022,120.351105 675.645874,121.617065 
	C678.769409,124.633713 680.565552,128.128845 680.372253,132.695129 
	C680.054688,140.194702 679.425232,147.648758 678.221375,155.501526 
z"/>
<path fill="#222030" opacity="1.000000" stroke="none" 
	d="
M584.052002,163.724182 
	C586.403564,150.152710 588.263000,136.970734 588.167114,123.589294 
	C588.156189,122.060555 588.149719,120.476089 589.836548,119.763649 
	C591.462463,119.076920 592.728027,119.995743 593.867554,121.028763 
	C597.353638,124.188988 599.342712,127.869102 599.185242,132.842545 
	C598.505920,154.297455 593.953247,175.084488 588.653809,195.747925 
	C587.001648,202.189804 585.187378,208.598312 583.172607,214.934753 
	C582.403931,217.352249 582.477539,221.156708 578.468750,220.717758 
	C575.516296,220.394455 572.715393,214.834839 573.504944,211.422836 
	C574.892883,205.425034 576.580688,199.494904 577.897217,193.482651 
	C580.032654,183.730530 581.969788,173.934982 584.052002,163.724182 
z"/>
<path fill="#232032" opacity="1.000000" stroke="none" 
	d="
M773.612427,176.758942 
	C767.312866,186.559723 764.333496,197.338898 760.776428,207.886566 
	C759.662781,211.188736 758.482605,214.476151 757.145325,217.692322 
	C756.362000,219.576416 755.091675,221.297043 752.702515,221.046951 
	C750.381287,220.803970 749.553040,218.882507 748.775391,216.990585 
	C747.765747,214.534500 748.096680,212.118362 748.791199,209.664856 
	C751.507812,200.067245 754.430603,190.524521 755.287170,180.498657 
	C755.813782,174.334900 755.382446,168.193085 755.342590,162.040222 
	C755.327698,159.734589 755.200256,156.859680 758.036621,156.258820 
	C760.608887,155.713898 762.041382,158.048141 763.413635,159.983414 
	C765.605591,163.074631 764.954529,166.897293 766.002930,170.949280 
	C769.083801,167.593140 771.600830,164.577820 774.407349,161.861649 
	C778.080322,158.306946 782.329956,155.752258 787.721802,156.037033 
	C789.746826,156.144012 791.990295,156.441391 792.693176,158.640137 
	C793.437988,160.969894 791.574402,162.388840 789.830017,163.356934 
	C783.690002,166.764465 777.601196,170.187653 773.612427,176.758942 
z"/>
<path fill="#232131" opacity="1.000000" stroke="none" 
	d="
M428.514099,209.306305 
	C432.614960,194.143967 436.540344,179.359894 439.581451,164.358002 
	C439.779144,163.382935 440.046570,162.404358 440.426453,161.487457 
	C441.288330,159.407089 441.506927,156.390442 444.296417,156.258301 
	C447.027618,156.128937 448.468719,158.622543 449.748962,160.815384 
	C451.197205,163.295975 451.015778,165.927795 450.431366,168.574646 
	C446.986298,184.177231 442.393463,199.457123 437.399872,214.621140 
	C436.989319,215.867889 436.379211,217.098297 435.626434,218.171143 
	C434.563324,219.686264 433.250885,221.160309 431.105713,220.513519 
	C428.767578,219.808533 427.529755,218.054749 427.634338,215.626602 
	C427.719788,213.642960 428.126678,211.673172 428.514099,209.306305 
z"/>
<path fill="#252333" opacity="1.000000" stroke="none" 
	d="
M448.378723,143.640411 
	C443.647461,138.144943 443.540558,134.357498 447.822449,131.192520 
	C448.884827,130.407288 450.015900,129.725525 451.473389,130.104614 
	C455.048859,131.034561 460.355225,142.153381 458.664612,145.315765 
	C457.391449,147.697174 455.178406,147.796539 453.092285,146.929749 
	C451.465759,146.253906 450.108826,144.929199 448.378723,143.640411 
z"/>
<path fill="#EBEEF0" opacity="1.000000" stroke="none" 
	d="
M160.600327,175.617249 
	C155.386108,180.308243 150.484909,184.820312 145.480377,189.214722 
	C139.076080,194.838287 132.625626,195.087555 126.110649,189.804688 
	C105.548576,173.131317 85.046776,156.383575 64.534538,139.648804 
	C63.147617,138.517319 61.515129,137.566925 61.598167,135.327896 
	C62.084858,122.204437 60.442543,109.008728 62.908806,95.952698 
	C68.022987,68.878975 92.755081,46.416752 120.290878,45.892403 
	C159.583954,45.144157 198.916977,45.035900 238.204544,45.918495 
	C269.508514,46.621742 296.203491,74.337921 296.730042,105.883270 
	C297.319305,141.184830 296.893494,176.503845 296.819641,211.815063 
	C296.813446,214.786575 296.096436,217.753250 295.764862,220.728317 
	C295.385254,224.134140 294.296478,224.585327 291.499146,222.322479 
	C275.708832,209.549088 259.804077,196.917206 243.940765,184.234039 
	C235.098785,177.164627 226.284775,170.060013 217.416870,163.023315 
	C202.797684,151.422928 186.864502,151.926010 173.121094,164.357788 
	C169.045822,168.044128 164.952484,171.710526 160.600327,175.617249 
z"/>
<path fill="#EBEEF0" opacity="1.000000" stroke="none" 
	d="
M114.299805,203.693069 
	C129.134277,215.059006 144.453125,214.523193 158.092331,202.341766 
	C167.163391,194.240280 176.154266,186.048996 185.226578,177.948944 
	C192.602402,171.363571 198.416931,171.155548 206.153488,177.330902 
	C232.062164,198.011414 257.872437,218.815872 283.875122,239.377151 
	C287.169617,241.982224 286.801422,243.673553 284.587097,246.548416 
	C272.152069,262.692627 255.984375,272.077850 235.497070,272.280731 
	C198.003952,272.652008 160.500351,272.745605 123.009132,272.292725 
	C89.485420,271.887787 62.281040,244.288132 61.686321,210.815247 
	C61.416958,195.654404 61.613628,180.485138 61.622387,165.319717 
	C61.623020,164.227646 61.816532,163.135681 62.008068,161.121262 
	C79.794273,175.597824 96.910858,189.529373 114.299805,203.693069 
z"/>
<path fill="#E5E8EB" opacity="1.000000" stroke="none" 
	d="
M384.607849,158.537292 
	C385.515594,153.551849 386.838043,149.006638 385.588379,144.319351 
	C385.227356,142.965149 385.563293,141.952591 386.821625,141.467804 
	C392.432373,139.306213 398.092102,137.207626 404.246002,138.966888 
	C414.146576,141.797256 417.630035,151.770294 411.537048,160.336288 
	C406.010376,168.106094 397.781494,172.195496 389.213470,175.582306 
	C386.521271,176.646469 383.039612,179.146942 380.966278,177.464096 
	C379.049438,175.908264 381.722595,172.363190 382.143280,169.650589 
	C382.701752,166.049469 383.694031,162.515594 384.607849,158.537292 
z"/>
<path fill="#E4E7EA" opacity="1.000000" stroke="none" 
	d="
M726.985718,175.950378 
	C723.512878,187.872818 719.249634,198.930374 709.251404,206.606567 
	C707.404480,208.024506 705.462158,209.317566 703.143433,209.889648 
	C696.910645,211.427414 693.061768,207.946228 694.759521,201.843048 
	C698.233337,189.355408 705.008606,178.828796 714.799316,170.325409 
	C717.187500,168.251251 720.055481,166.069702 723.346069,167.377747 
	C726.776184,168.741211 726.664490,172.393707 726.985718,175.950378 
z"/>
<path fill="#E0E3E6" opacity="1.000000" stroke="none" 
	d="
M822.909790,166.709106 
	C826.251892,166.876999 828.170654,168.686798 829.876038,170.808960 
	C834.620789,176.713257 833.413513,181.163452 826.289062,183.824570 
	C819.996887,186.174805 813.532166,185.779892 807.050354,184.851700 
	C805.444885,184.621780 804.379944,183.894241 805.394043,182.218765 
	C809.545898,175.359222 813.596497,168.340500 822.909790,166.709106 
z"/>
<path fill="#E0E3E6" opacity="1.000000" stroke="none" 
	d="
M530.726562,179.897430 
	C533.706665,175.215103 536.867981,171.182327 541.350281,168.432205 
	C544.322266,166.608719 547.569458,165.733612 550.701294,167.831451 
	C553.958252,170.013123 556.344604,173.014023 556.677490,177.111069 
	C556.912415,180.001770 554.986145,181.695145 552.657898,182.835312 
	C545.624451,186.279663 538.169312,186.157867 530.779541,184.681290 
	C526.936462,183.913406 530.191711,181.759064 530.726562,179.897430 
z"/>
<path fill="#1E1B2C" opacity="1.000000" stroke="none" 
	d="
M107.843826,138.174377 
	C94.127930,126.796799 89.595360,110.415031 95.780518,95.403694 
	C101.861046,80.646294 116.634155,71.521179 132.320938,72.833252 
	C147.197800,74.077591 159.987411,84.420761 164.119232,98.549057 
	C168.418945,113.251511 163.462692,128.565765 151.393188,137.871033 
	C139.463211,147.068741 123.645660,147.921921 110.617561,140.058640 
	C109.763718,139.543304 108.959343,138.945984 107.843826,138.174377 
z"/>
<path fill="#E7EAEC" opacity="1.000000" stroke="none" 
	d="
M122.589607,125.813889 
	C113.467400,120.729080 109.856911,113.353622 111.885330,104.595291 
	C113.582314,97.268005 120.342842,91.512314 127.925850,90.938911 
	C135.324020,90.379486 142.242737,94.175140 145.519135,100.915398 
	C148.899918,107.870453 148.086166,114.541763 143.270630,120.573029 
	C138.423401,126.643997 131.114090,128.486389 122.589607,125.813889 
z"/>
</svg>